<svg width="856" height="878" viewBox="0 0 856 878" fill="none" xmlns="http://www.w3.org/2000/svg">
<g clip-path="url(#clip0)">
<path d="M117.5 94C223.5 -31.6 356.667 -4.33334 410 25C454.5 42.1587 465 63.5 607.5 49.5C721.5 38.3 769.7 104.5 746 155C681 293.5 912.5 367 841.5 519.5C784.7 641.5 702.5 719.333 668.5 743C571.5 799.333 343 903.9 205 871.5C67 839.1 61.8333 760.333 76.5 725C170.9 619.4 156.5 497.667 137.5 450C86.6667 383.667 11.5 219.6 117.5 94Z" fill="#A3DDEB"/>
<path d="M597.316 643.853H595.316V425.006C595.317 424.114 595.119 423.234 594.736 422.428C594.354 421.623 593.796 420.914 593.103 420.352L594.367 418.802C595.29 419.55 596.034 420.496 596.544 421.57C597.054 422.643 597.318 423.817 597.316 425.006V643.853Z" fill="#3F3D56"/>
<path d="M393.58 82.2328C394.097 83.4135 394.483 84.6477 394.73 85.9129C394.17 83.9829 393.73 82.6728 393.58 82.2328Z" fill="#3F3D56"/>
<path d="M411.32 143.373C411.32 143.373 411.32 144.753 409.83 149.733L411.32 143.373Z" fill="#3F3D56"/>
<path d="M593.91 351.683C554.58 372.183 503.13 389.883 487.72 395.013C499.47 391.953 533.67 387.833 586.66 420.893C653.24 462.423 724.43 434.733 724.43 434.733C724.43 434.733 708.61 465.063 674.99 467.033C641.37 469.013 553.7 413.643 524.04 429.463C494.37 445.283 480.53 425.503 468.66 465.063C456.8 504.613 435.05 612.713 460.1 673.363L485.14 734.003H342.76C342.76 734.003 394.18 596.893 365.83 512.523C349.96 465.273 327.68 431.053 319.37 413.663C315.2 404.953 314.54 400.473 319.94 400.693C323.01 400.823 328.04 402.473 335.51 405.733C335.51 405.733 301.23 372.113 290.03 372.113C278.82 372.113 226.08 366.843 208.95 349.043C208.95 349.043 184.56 331.903 141.05 374.093C97.54 416.283 108.09 416.283 69.2 412.983C30.92 409.733 0.929969 391.163 -3.05176e-05 390.583C1.10997 391.033 45.82 408.903 73.15 399.803C100.84 390.573 124.57 355.633 148.96 343.773C173.35 331.903 187.85 316.083 220.81 333.223L199.09 282.013L193.14 267.983L193.13 267.963C193.13 267.963 185.87 171.723 172.03 165.133C158.19 158.533 166.76 141.403 141.05 138.103C141.05 138.103 172.69 134.143 178.62 155.903C184.56 177.653 225.43 294.993 225.43 294.993C225.43 294.993 250.47 345.083 278.16 333.223C305.85 321.353 267.61 254.783 267.61 254.783L220.15 233.023C220.15 233.023 255.75 231.703 277.5 252.143C299.25 272.573 300.57 338.493 300.57 338.493C300.57 338.493 355.28 346.403 368.47 376.073C368.47 376.073 377.04 349.703 360.56 333.883C356.44 329.923 352.11 323.043 347.94 314.953C332.133 283.902 326.42 248.689 331.6 214.233C334.05 197.373 335.56 180.883 332.87 176.993C326.94 168.423 301.89 115.693 299.91 101.843C297.94 88.0028 301.89 59.0028 301.89 59.0028C301.89 59.0028 302.55 94.5928 310.46 105.803C318.37 117.013 340.78 172.383 340.78 172.383C340.78 172.383 340.78 242.253 359.24 276.533C377.7 310.813 413.29 349.043 411.32 374.093V388.593C411.32 388.593 450.87 351.023 448.23 338.493C445.59 325.973 442.3 296.303 417.25 278.513C392.2 260.713 375.72 232.363 393.52 191.493C403.53 168.503 407.91 156.153 409.83 149.743L399.45 194.133C399.45 194.133 392.86 239.613 411.32 255.433C411.37 255.473 411.41 255.513 411.46 255.553C429.89 271.393 454.16 300.263 454.16 300.263L454.09 298.993L448.89 205.343L450.03 207.843L458.25 225.863L466.03 242.913C466.03 242.913 502.94 195.453 546.45 179.633C589.95 163.813 616.98 108.443 616.98 108.443L653.9 79.4328L623.57 115.693C623.57 115.693 614.34 158.533 562.27 188.863C510.19 219.183 476.58 264.003 474.6 291.693C472.62 319.383 470.64 343.773 470.64 343.773C470.64 343.773 568.2 340.473 589.95 297.623C611.71 254.783 629.51 252.803 629.51 252.803L616.98 289.713L603.14 321.353C603.14 321.353 659.83 322.673 689.49 356.293C719.16 389.913 792.98 399.803 792.98 399.803L751.46 411.003C751.46 411.003 711.9 397.823 674.33 373.433C636.76 349.043 640.71 327.293 593.91 351.683Z" fill="#3F3D56"/>
<path opacity="0.1" d="M614.93 261.743C610.76 280.203 605.85 298.033 598.95 311.623C577.2 354.473 479.64 357.773 479.64 357.773C479.64 357.773 480.1 352.113 480.8 343.183C505.57 341.143 573.28 332.433 590.95 297.623C592.57 294.443 594.07 291.023 595.49 287.423L614.93 261.743Z" fill="black"/>
<path opacity="0.1" d="M463.16 314.263C463.16 314.263 438.77 285.253 420.32 269.433C416.27 265.973 413.43 261.073 411.46 255.553C411.3 255.113 411.15 254.663 411 254.213C411.43 254.633 411.86 255.043 412.32 255.433C428.47 269.283 449.18 293.243 454.09 298.993C454.78 299.813 455.16 300.263 455.16 300.263L450.03 207.843L458.25 225.863L463.16 314.263Z" fill="black"/>
<path opacity="0.1" d="M477.279 231.03C477.135 247.26 475.028 256.913 475.028 256.913C475.028 256.913 511.927 209.472 555.421 193.641C557.992 192.015 560.6 190.414 563.269 188.86C615.345 158.537 624.573 115.69 624.573 115.69L654.896 79.4348L617.982 108.439C617.982 108.439 590.955 163.81 547.449 179.631C517.793 190.415 491.205 215.896 477.279 231.03Z" fill="black"/>
<path opacity="0.1" d="M420.316 388.091V402.593C420.316 402.593 459.867 365.019 457.23 352.495C455.214 342.916 452.799 323.318 440.577 306.665C446.086 319.25 447.763 331.526 449.23 338.495C451.121 347.476 431.319 369.337 419.962 380.988C420.361 383.333 420.479 385.717 420.316 388.091Z" fill="black"/>
<path opacity="0.1" d="M367.262 288.57C367.575 289.238 367.898 289.895 368.24 290.531C378.348 309.304 393.588 329.259 404.99 347.589C395.775 329.437 379.738 308.679 367.262 288.57Z" fill="black"/>
<path opacity="0.1" d="M587.659 420.893C565.975 407.367 547.44 400.068 532.299 396.37C516.417 402.348 503.345 406.805 496.768 408.993C508.564 405.94 542.74 401.884 595.659 434.893C637.179 460.792 680.492 459.771 707.215 455.334C714.605 449.758 720.799 442.753 725.429 434.736C725.429 434.736 654.237 462.421 587.659 420.893Z" fill="black"/>
<path opacity="0.1" d="M399.398 260.506C394.083 247.482 393.207 231.983 399.314 213.823C399.237 207.241 399.617 200.662 400.45 194.133L410.83 149.732C408.916 156.135 404.538 168.488 394.518 191.496C381.833 220.625 386.567 243.386 399.398 260.506Z" fill="black"/>
<path opacity="0.1" d="M690.492 356.293C669.92 332.978 636.356 325.2 617.71 322.621L612.139 335.356C612.139 335.356 668.829 336.674 698.492 370.293C714.942 388.936 744.969 400.278 768.46 406.686L793.984 399.799C793.984 399.799 720.155 389.911 690.492 356.293Z" fill="black"/>
<path opacity="0.1" d="M287.16 347.221C314.846 335.356 276.613 268.778 276.613 268.778L275.567 268.299C285.099 288.409 298.923 324.751 279.16 333.221C260.668 341.146 243.354 321.429 233.893 307.459C234.237 308.447 234.426 308.988 234.426 308.988C234.426 308.988 259.474 359.086 287.16 347.221Z" fill="black"/>
<path opacity="0.1" d="M377.469 390.068C377.469 390.068 385.811 364.353 370.139 348.477C373.982 362.154 369.469 376.068 369.469 376.068C359.27 353.121 324.226 343.194 308.877 339.874C309.472 347.514 309.573 352.495 309.573 352.495C309.573 352.495 364.285 360.405 377.469 390.068Z" fill="black"/>
<path opacity="0.1" d="M410.83 149.732C412.315 144.761 412.316 143.376 412.316 143.376L410.83 149.732Z" fill="black"/>
<path opacity="0.1" d="M81.7536 413.925C81.8866 413.882 82.0216 413.843 82.1536 413.799C109.839 404.57 133.57 369.633 157.96 357.768C182.35 345.903 196.852 330.082 229.811 347.221C229.811 347.221 224.045 323.619 212.871 308.112C216.572 316.207 219.563 324.609 221.811 333.221C188.852 316.082 174.35 331.903 149.96 343.768C125.57 355.634 101.839 390.57 74.1536 399.799C46.4679 409.028 0.98407 390.57 0.98407 390.57C0.98407 390.57 31.3066 409.687 70.1985 412.983C74.6475 413.36 78.4437 413.692 81.7536 413.925Z" fill="black"/>
<path opacity="0.1" d="M202.13 281.963C202.13 281.963 201.05 281.983 199.09 282.013L193.14 267.983C193.79 267.973 194.13 267.963 194.13 267.963C194.13 267.963 189.55 207.263 180.73 178.973C180.84 179.023 180.93 179.083 181.03 179.133C194.87 185.723 202.13 281.963 202.13 281.963Z" fill="black"/>
<path opacity="0.1" d="M356.576 734.006C368.654 696.98 397.701 594.595 374.832 526.52C364.956 497.121 355.802 478.374 348.063 466.414C353.85 477.736 360.178 492.711 366.832 512.52C395.177 596.895 343.76 734.006 343.76 734.006H356.576Z" fill="black"/>
<path opacity="0.1" d="M344.51 419.733C336.556 416.235 328.043 414.18 319.37 413.663C315.2 404.953 314.54 400.473 319.94 400.693C321.44 400.963 322.95 401.283 324.45 401.653C335.05 410.453 344.51 419.733 344.51 419.733Z" fill="black"/>
<path opacity="0.1" d="M166.055 158.73C166.807 159.996 167.718 161.16 168.766 162.195C167.996 160.941 167.087 159.779 166.055 158.73Z" fill="black"/>
<path opacity="0.1" d="M286.501 266.141C287.52 267.105 288.475 268.134 289.359 269.222C286.471 262.281 282.905 256.279 278.501 252.141C256.748 231.707 221.152 233.025 221.152 233.025L265.793 253.485C273.442 256.339 280.473 260.636 286.501 266.141Z" fill="black"/>
<path opacity="0.1" d="M333.873 176.994C336.563 180.88 335.051 197.37 332.596 214.235C327.418 248.69 333.132 283.901 348.941 314.949C351.041 319.104 353.387 323.13 355.965 327.007C340.9 296.417 335.537 261.956 340.596 228.235C343.051 211.37 344.563 194.88 341.873 190.994C335.94 182.425 310.891 129.69 308.913 115.847C308.321 110.477 308.182 105.066 308.5 99.6721C303.38 85.1436 302.891 59 302.891 59C302.891 59 298.936 88.0042 300.913 101.847C302.891 115.69 327.94 168.425 333.873 176.994Z" fill="black"/>
<path opacity="0.1" d="M395.714 85.8642C395.45 84.5614 395.049 83.2901 394.518 82.0715C394.518 82.0715 395.024 83.4942 395.714 85.8642Z" fill="black"/>
<path opacity="0.1" d="M162.887 152.253C168.697 152.964 175.38 154.747 180.477 158.88C180.144 157.756 179.854 156.748 179.623 155.9C173.691 134.147 142.05 138.102 142.05 138.102C156.349 139.935 160.042 146.051 162.887 152.253Z" fill="black"/>
<path d="M784.514 700.138C774.683 715.214 777.377 734.389 777.377 734.389C777.377 734.389 796.01 729.121 805.841 714.044C815.672 698.968 812.978 679.793 812.978 679.793C812.978 679.793 794.345 685.062 784.514 700.138Z" fill="#3F3D56"/>
<path d="M791.899 702.803C791.122 720.785 777.774 734.812 777.774 734.812C777.774 734.812 765.686 719.686 766.463 701.704C767.24 683.722 780.588 669.695 780.588 669.695C780.588 669.695 792.676 684.822 791.899 702.803Z" fill="#00C39A"/>
<path d="M618.746 589.01C618.746 589.01 630.058 577.143 634.687 579.531C639.317 581.918 621.375 592.53 621.375 592.53L618.746 589.01Z" fill="#FFB9B9"/>
<path opacity="0.1" d="M618.746 589.01C618.746 589.01 630.058 577.143 634.687 579.531C639.317 581.918 621.375 592.53 621.375 592.53L618.746 589.01Z" fill="black"/>
<path d="M584.232 563.109C584.232 563.109 580.074 570.562 581.162 578.597C582.25 586.632 592.201 612.415 595.584 611.956C598.967 611.498 624.027 593.032 624.027 593.032L619.248 586.359L600.941 597.451C600.941 597.451 598.152 557.779 584.232 563.109Z" fill="#D0CDE1"/>
<path d="M652.114 581.253L623.574 596.93C623.409 597.04 623.221 597.112 623.025 597.142C622.829 597.171 622.628 597.157 622.438 597.101C622.247 597.045 622.071 596.948 621.922 596.816C621.773 596.685 621.655 596.522 621.576 596.34L614.585 581.727C614.452 581.31 614.474 580.86 614.645 580.458C614.817 580.056 615.127 579.729 615.52 579.536L639.215 567.323C639.506 567.147 639.853 567.086 640.187 567.149C640.522 567.213 640.821 567.398 641.027 567.669L652.863 578.82C652.98 579.028 653.053 579.257 653.078 579.494C653.103 579.73 653.08 579.97 653.01 580.197C652.94 580.425 652.824 580.636 652.67 580.817C652.516 580.999 652.327 581.147 652.114 581.253Z" fill="#2F2E41"/>
<path d="M650.209 579.094L623.454 594.387L616.334 581.555L639.286 569.073L650.209 579.094Z" fill="#00C39A"/>
<path d="M627.761 574.674C627.9 574.507 627.898 574.276 627.755 574.157C627.613 574.038 627.385 574.077 627.245 574.244C627.106 574.411 627.108 574.643 627.251 574.762C627.393 574.88 627.622 574.841 627.761 574.674Z" fill="#F2F2F2"/>
<path d="M637.609 587.731C637.702 587.62 637.7 587.465 637.605 587.386C637.51 587.307 637.358 587.333 637.265 587.444C637.172 587.556 637.174 587.71 637.269 587.789C637.364 587.869 637.516 587.842 637.609 587.731Z" fill="#F2F2F2"/>
<path opacity="0.1" d="M584.232 563.109C584.232 563.109 580.074 570.562 581.162 578.597C582.25 586.632 592.201 612.415 595.584 611.956C598.967 611.498 624.027 593.032 624.027 593.032L619.248 586.359L600.941 597.451C600.941 597.451 598.152 557.779 584.232 563.109Z" fill="black"/>
<path d="M611.098 591.278C611.098 591.278 623.9 581.036 628.168 584.023C632.435 587.011 613.232 595.119 613.232 595.119L611.098 591.278Z" fill="#FFB9B9"/>
<path d="M594.028 550.311C600.863 550.311 606.404 544.77 606.404 537.935C606.404 531.1 600.863 525.559 594.028 525.559C587.193 525.559 581.653 531.1 581.653 537.935C581.653 544.77 587.193 550.311 594.028 550.311Z" fill="#FFB9B9"/>
<path d="M636.703 624.137C636.703 624.137 649.932 625.844 649.505 633.952C649.078 642.061 639.263 675.773 639.263 675.773L638.41 689.002C638.41 689.002 639.263 711.193 636.703 710.766C634.142 710.34 628.168 694.977 628.168 694.977C628.168 694.977 620.913 690.283 624.327 686.015C627.741 681.748 630.301 682.174 629.448 677.48C628.594 672.786 629.021 653.156 631.582 647.181C634.142 641.207 635.634 637.912 635.634 637.912L627.314 637.366L636.703 624.137Z" fill="#FFB9B9"/>
<path opacity="0.1" d="M636.703 624.137C636.703 624.137 649.932 625.844 649.505 633.952C649.078 642.061 639.263 675.773 639.263 675.773L638.41 689.002C638.41 689.002 639.263 711.193 636.703 710.766C634.142 710.34 628.168 694.977 628.168 694.977C628.168 694.977 620.913 690.283 624.327 686.015C627.741 681.748 630.301 682.174 629.448 677.48C628.594 672.786 629.021 653.156 631.582 647.181C634.142 641.207 635.634 637.912 635.634 637.912L627.314 637.366L636.703 624.137Z" fill="black"/>
<path d="M637.556 626.271C637.556 626.271 650.358 629.258 651.639 637.793C652.919 646.328 659.32 671.506 659.32 671.506L666.148 687.295C666.148 687.295 676.816 706.499 672.122 706.072C667.428 705.645 661.027 696.257 658.893 696.257C656.76 696.257 650.358 693.697 650.785 691.99C651.212 690.283 654.199 685.162 654.199 685.162L643.875 667.177C641.881 663.705 640.374 659.976 639.396 656.094C638.336 651.882 637.129 646.722 637.129 645.048C637.129 642.061 628.594 640.78 628.594 640.78L637.556 626.271Z" fill="#FFB9B9"/>
<path d="M595.735 598.959L601.71 616.029C601.71 616.029 611.098 618.59 617.926 620.723C624.754 622.857 637.556 619.87 638.836 624.991C640.117 630.112 636.276 639.073 632.435 641.207C628.594 643.341 626.461 645.474 614.085 642.06C601.71 638.647 572.264 637.793 572.264 637.793C569.41 639.506 566.195 640.529 562.876 640.78C557.328 641.207 556.048 641.634 554.341 640.354C552.634 639.073 555.194 639.073 556.048 635.659C556.901 632.245 557.328 633.526 561.169 629.685C565.01 625.844 567.997 614.322 570.131 610.481C572.264 606.641 573.545 598.959 573.545 598.959H595.735Z" fill="#2F2E41"/>
<path d="M594.882 548.177C593.331 549.309 592.063 550.784 591.175 552.486C590.287 554.189 589.803 556.072 589.761 557.992C589.761 564.393 576.958 551.164 576.958 551.164C576.958 551.164 583.786 542.629 583.786 540.069C583.786 537.508 594.882 548.177 594.882 548.177Z" fill="#FFB9B9"/>
<path d="M578.665 545.616C578.665 545.616 586.347 548.604 588.054 552.871C589.761 557.138 596.162 566.1 596.162 566.1C596.162 566.1 605.123 575.488 602.136 585.73C599.149 595.972 596.589 598.533 596.589 600.24C596.589 601.947 592.321 604.934 588.907 604.507C585.493 604.08 572.691 602.373 571.837 600.666C570.984 598.959 565.863 574.635 569.277 565.673C572.046 558.825 575.18 552.13 578.665 545.616Z" fill="#D0CDE1"/>
<path d="M597.618 538.498C600.387 539.155 603.105 537.391 605.374 535.641C606.662 534.648 608.081 533.231 607.686 531.633C607.336 530.214 605.665 529.41 605.421 527.969C605.252 526.967 605.838 525.993 605.885 524.977C605.843 524.203 605.589 523.456 605.151 522.817C604.713 522.178 604.108 521.671 603.401 521.353C602.052 520.627 600.521 520.324 599.135 519.674C597.019 518.681 595.259 516.891 592.999 516.317C589.91 515.534 586.766 517.202 583.59 517.418C581.669 517.548 579.723 517.143 577.822 517.458C576.009 517.825 574.372 518.791 573.176 520.201C571.979 521.611 571.292 523.383 571.225 525.232C571.2 526.59 571.472 528.105 570.661 529.182C570.341 529.553 569.976 529.884 569.575 530.166C566.752 532.449 565.47 536.264 565.324 539.939C565.252 541.748 565.631 543.897 567.236 544.666C568.096 544.96 569.004 545.087 569.911 545.038C570.367 545.019 570.821 545.111 571.233 545.308C571.644 545.505 572.002 545.799 572.273 546.166C573.004 547.455 571.909 549.36 572.865 550.485C573.584 551.331 574.985 551.05 575.824 550.33C576.662 549.609 577.186 548.573 577.981 547.803C579.528 546.305 581.822 546.033 583.942 545.806C584.571 545.801 585.182 545.6 585.691 545.232C586.076 544.828 586.327 544.314 586.408 543.762C586.687 542.49 586.691 541.174 586.419 539.901C586.284 539.507 586.267 539.082 586.37 538.679C586.51 538.392 586.727 538.149 586.996 537.978C588.31 536.99 590.612 535.553 592.32 535.825C594.215 536.127 595.706 538.044 597.618 538.498Z" fill="#2F2E41"/>
<path d="M580.372 560.979C580.372 560.979 575.251 567.807 575.251 575.915C575.251 584.023 581.653 610.908 585.067 610.908C588.48 610.908 615.792 595.972 615.792 595.972L611.951 588.717L592.321 597.252C592.321 597.252 594.882 557.565 580.372 560.979Z" fill="#D0CDE1"/>
<path d="M638.316 638.006H540.316V657.006H638.316V638.006Z" fill="#00C39A"/>
<path d="M589.316 658.006C587.195 658.003 585.162 657.16 583.662 655.66C582.162 654.16 581.318 652.127 581.316 650.006V425.006C581.316 423.493 581.745 422.011 582.553 420.732C583.361 419.454 584.515 418.43 585.881 417.781C587.248 417.131 588.77 416.882 590.272 417.063C591.774 417.244 593.194 417.847 594.367 418.802L593.103 420.352C592.223 419.636 591.158 419.184 590.032 419.049C588.906 418.913 587.764 419.1 586.739 419.587C585.715 420.074 584.849 420.842 584.243 421.801C583.637 422.76 583.316 423.871 583.316 425.006V650.006C583.318 651.596 583.95 653.122 585.075 654.246C586.2 655.371 587.725 656.004 589.316 656.006V658.006Z" fill="#3F3D56"/>
<path d="M855.316 733.006H49.3159V735.006H855.316V733.006Z" fill="#3F3D56"/>
<path d="M574.194 532.345C574.625 531.999 574.133 530.672 573.095 529.38C572.058 528.088 570.868 527.321 570.437 527.667C570.007 528.013 570.499 529.34 571.536 530.632C572.574 531.924 573.764 532.691 574.194 532.345Z" fill="#00C39A"/>
<path d="M488.514 700.138C478.683 715.214 481.377 734.389 481.377 734.389C481.377 734.389 500.01 729.121 509.841 714.044C519.672 698.968 516.978 679.793 516.978 679.793C516.978 679.793 498.345 685.062 488.514 700.138Z" fill="#3F3D56"/>
<path d="M495.899 702.803C495.122 720.785 481.774 734.812 481.774 734.812C481.774 734.812 469.686 719.686 470.463 701.704C471.24 683.722 484.588 669.695 484.588 669.695C484.588 669.695 496.676 684.822 495.899 702.803Z" fill="#00C39A"/>
<path d="M326.725 705.841C331.425 723.215 347.524 733.975 347.524 733.975C347.524 733.975 356.002 716.566 351.302 699.192C346.602 681.819 330.504 671.058 330.504 671.058C330.504 671.058 322.025 688.467 326.725 705.841Z" fill="#3F3D56"/>
<path d="M333.632 702.107C346.528 714.661 348.104 733.961 348.104 733.961C348.104 733.961 328.769 732.905 315.872 720.35C302.976 707.796 301.4 688.497 301.4 688.497C301.4 688.497 320.735 689.552 333.632 702.107Z" fill="#00C39A"/>
<path d="M290.886 231.047C289.765 249.01 276.151 262.779 276.151 262.779C276.151 262.779 264.354 247.424 265.476 229.461C266.597 211.497 280.211 197.728 280.211 197.728C280.211 197.728 292.007 213.083 290.886 231.047Z" fill="#00C39A"/>
<path d="M148.97 117.485C164.195 127.084 169.748 145.634 169.748 145.634C169.748 145.634 150.617 148.621 135.392 139.022C120.167 129.423 114.613 110.873 114.613 110.873C114.613 110.873 133.745 107.886 148.97 117.485Z" fill="#00C39A"/>
<path d="M114.97 336.485C130.195 346.084 135.748 364.634 135.748 364.634C135.748 364.634 116.617 367.621 101.392 358.022C86.1666 348.423 80.6133 329.873 80.6133 329.873C80.6133 329.873 99.7449 326.886 114.97 336.485Z" fill="#00C39A"/>
<path d="M424.49 149.501C419.898 166.904 403.867 177.764 403.867 177.764C403.867 177.764 395.281 160.409 399.872 143.006C404.463 125.603 420.494 114.743 420.494 114.743C420.494 114.743 429.081 132.098 424.49 149.501Z" fill="#00C39A"/>
<path d="M569.325 163.071C563.929 180.241 547.409 190.343 547.409 190.343C547.409 190.343 539.64 172.607 545.036 155.437C550.433 138.266 566.952 128.164 566.952 128.164C566.952 128.164 574.722 145.9 569.325 163.071Z" fill="#00C39A"/>
<path d="M725.87 354.168C716.094 369.28 697.481 374.617 697.481 374.617C697.481 374.617 694.717 355.452 704.492 340.34C714.268 325.227 732.881 319.89 732.881 319.89C732.881 319.89 735.645 339.055 725.87 354.168Z" fill="#00C39A"/>
</g>
<defs>
<clipPath id="clip0">
<rect width="856" height="878" fill="white"/>
</clipPath>
</defs>
</svg>
